PathFileType	4	(X/Y/Z)	 0.06m3min.trc
DataRate	CameraRate	NumFrames	NumMarkers	Units	OrigDataRate	OrigDataStartFrame	OrigNumFrames
200	200	8	43	m	200	501	1000
Frame#	Time	C7			LSH			RSH			MAN			RASI			LASI			HIPR			HIPL			RPSI			LPSI			COX			RTHI1			RTHI2			RTHI3			RTHI4			RLKN			RMKN			RSHA1			RSHA2			RSHA3			RSHA4			RLMAL			RMMAL			RHEEL			RMET5			RMET1			RTOE			LTHI1			LTHI2			LTHI3			LTHI4			LLKN			LMKN			LSHA1			LSHA2			LSHA3			LSHA4			LLMAL			LMMAL			LHEEL			LMET5			LMET1			LTOE			
		X1	Y1	Z1	X2	Y2	Z2	X3	Y3	Z3	X4	Y4	Z4	X5	Y5	Z5	X6	Y6	Z6	X7	Y7	Z7	X8	Y8	Z8	X9	Y9	Z9	X10	Y10	Z10	X11	Y11	Z11	X12	Y12	Z12	X13	Y13	Z13	X14	Y14	Z14	X15	Y15	Z15	X16	Y16	Z16	X17	Y17	Z17	X18	Y18	Z18	X19	Y19	Z19	X20	Y20	Z20	X21	Y21	Z21	X22	Y22	Z22	X23	Y23	Z23	X24	Y24	Z24	X25	Y25	Z25	X26	Y26	Z26	X27	Y27	Z27	X28	Y28	Z28	X29	Y29	Z29	X30	Y30	Z30	X31	Y31	Z31	X32	Y32	Z32	X33	Y33	Z33	X34	Y34	Z34	X35	Y35	Z35	X36	Y36	Z36	X37	Y37	Z37	X38	Y38	Z38	X39	Y39	Z39	X40	Y40	Z40	X41	Y41	Z41	X42	Y42	Z42	X43	Y43	Z43	
501	2.5050	-0.315454	1.565056	-0.535355	-0.279464	1.548093	-0.731258	-0.274084	1.554966	-0.351493	-0.165681	1.511740	-0.549378	-0.160458	1.051726	-0.425793	-0.173037	1.062305	-0.671054	-0.223348	1.113688	-0.375363	-0.251795	1.128662	-0.705278	-0.337762	1.108735	-0.499685	-0.341396	1.110233	-0.562824	-0.338519	1.110954	-0.533018	-0.228341	0.828123	-0.345140	-0.225236	0.766784	-0.346676	-0.154473	0.778996	-0.357655	-0.164779	0.837524	-0.355917	-0.256009	0.556782	-0.369840	-0.233092	0.538678	-0.500357	-0.338993	0.322891	-0.367701	-0.352976	0.285212	-0.380732	-0.294139	0.269342	-0.375957	-0.283808	0.307107	-0.366445	-0.360228	0.159014	-0.388233	-0.312172	0.161022	-0.467838	-0.406126	0.151468	-0.439755	-0.263005	0.060943	-0.368161	-0.213502	0.075100	-0.435530	-0.186057	0.065611	-0.427507	-0.281270	0.818112	-0.738232	-0.267582	0.760109	-0.736690	-0.199853	0.777984	-0.757310	-0.222067	0.835622	-0.756625	-0.248293	0.551358	-0.739525	-0.221546	0.527298	-0.621030	-0.346616	0.322523	-0.735632	-0.000000	0.000000	-0.000000	-0.299021	0.269827	-0.743474	-0.295738	0.313454	-0.750416	-0.349035	0.166169	-0.738004	-0.000000	0.000000	-0.000000	-0.406247	0.160809	-0.680794	-0.263742	0.068883	-0.751281	-0.212555	0.086906	-0.694257	-0.186638	0.071924	-0.700614	
502	2.5100	-0.315120	1.563549	-0.535199	-0.279158	1.546093	-0.731381	-0.273450	1.553129	-0.351091	-0.165430	1.509984	-0.549272	-0.160829	1.050084	-0.425711	-0.173351	1.060613	-0.670985	-0.223880	1.111850	-0.375275	-0.252272	1.126659	-0.705138	-0.338323	1.106530	-0.499546	-0.341882	1.107940	-0.562683	-0.339092	1.108685	-0.532906	-0.228054	0.826562	-0.345134	-0.224824	0.765222	-0.346615	-0.154093	0.777600	-0.357683	-0.164530	0.836072	-0.355964	-0.255265	0.555197	-0.369656	-0.233018	0.537246	-0.500259	-0.338879	0.321576	-0.367440	-0.353057	0.284017	-0.380465	-0.294290	0.267916	-0.376151	-0.283793	0.305613	-0.366612	-0.360871	0.157830	-0.388400	-0.313413	0.159865	-0.468143	-0.407117	0.150773	-0.439518	-0.264215	0.058738	-0.369604	-0.214896	0.073259	-0.437077	-0.187464	0.063445	-0.429404	-0.281132	0.816529	-0.738227	-0.267417	0.758528	-0.736641	-0.199659	0.776430	-0.757151	-0.221910	0.834063	-0.756515	-0.247927	0.549792	-0.739535	-0.221906	0.525821	-0.620906	-0.346579	0.321011	-0.735764	-0.000000	0.000000	-0.000000	-0.298995	0.268322	-0.743344	-0.295832	0.311787	-0.750134	-0.349257	0.164764	-0.737963	-0.000000	0.000000	-0.000000	-0.406658	0.159421	-0.680909	-0.263896	0.067510	-0.750912	-0.212934	0.085548	-0.693718	-0.186987	0.070622	-0.699983	
503	2.5150	-0.314789	1.561792	-0.535060	-0.278828	1.543861	-0.731496	-0.272864	1.551057	-0.350722	-0.165203	1.507981	-0.549162	-0.161197	1.048229	-0.425588	-0.173638	1.058691	-0.670905	-0.224484	1.109792	-0.375212	-0.252701	1.124442	-0.705007	-0.338864	1.104080	-0.499441	-0.342336	1.105409	-0.562564	-0.339650	1.106186	-0.532817	-0.227810	0.824740	-0.345125	-0.224439	0.763409	-0.346545	-0.153731	0.775956	-0.357616	-0.164312	0.834392	-0.355944	-0.254455	0.553349	-0.369481	-0.232909	0.535573	-0.500168	-0.338711	0.320056	-0.367143	-0.353108	0.282613	-0.380142	-0.294421	0.266255	-0.376343	-0.283720	0.303877	-0.366776	-0.361546	0.156462	-0.388570	-0.314812	0.158462	-0.468423	-0.408171	0.149987	-0.439245	-0.265626	0.056220	-0.370985	-0.216490	0.071021	-0.438648	-0.189079	0.060841	-0.431334	-0.281096	0.814713	-0.738151	-0.267361	0.756710	-0.736532	-0.199594	0.774613	-0.757002	-0.221870	0.832255	-0.756403	-0.247636	0.547980	-0.739555	-0.222270	0.524111	-0.620803	-0.346611	0.319332	-0.735831	-0.000000	0.000000	-0.000000	-0.299084	0.266578	-0.743237	-0.295955	0.309938	-0.749958	-0.349599	0.163146	-0.737925	-0.000000	0.000000	-0.000000	-0.407084	0.157897	-0.680927	-0.264317	0.065828	-0.750718	-0.213420	0.083816	-0.693468	-0.187490	0.068921	-0.699698	
504	2.5200	-0.314465	1.559785	-0.534935	-0.278478	1.541399	-0.731599	-0.272329	1.548749	-0.350387	-0.165003	1.505733	-0.549050	-0.161564	1.046166	-0.425417	-0.173897	1.056540	-0.670812	-0.225150	1.107517	-0.375171	-0.253066	1.122013	-0.704881	-0.339379	1.101428	-0.499377	-0.342783	1.102675	-0.562480	-0.340183	1.103470	-0.532755	-0.227605	0.822656	-0.345105	-0.224079	0.761335	-0.346464	-0.153387	0.774070	-0.357465	-0.164124	0.832467	-0.355859	-0.253591	0.551247	-0.369295	-0.232733	0.533653	-0.500070	-0.338515	0.318324	-0.366810	-0.353165	0.281013	-0.379832	-0.294552	0.264366	-0.376529	-0.283621	0.301900	-0.366930	-0.362286	0.154901	-0.388750	-0.316355	0.156788	-0.468687	-0.409291	0.149098	-0.438945	-0.267206	0.053492	-0.372318	-0.218274	0.068385	-0.440201	-0.190884	0.057817	-0.433261	-0.281147	0.812645	-0.738017	-0.267403	0.754643	-0.736378	-0.199641	0.772528	-0.756871	-0.221934	0.830191	-0.756298	-0.247414	0.545931	-0.739591	-0.222587	0.522160	-0.620736	-0.346487	0.317559	-0.736326	-0.000000	0.000000	-0.000000	-0.299303	0.264611	-0.743156	-0.296119	0.307921	-0.749887	-0.350068	0.161318	-0.737885	-0.000000	0.000000	-0.000000	-0.407540	0.156231	-0.680843	-0.265000	0.063851	-0.750697	-0.214049	0.081751	-0.693481	-0.188166	0.066840	-0.699738	
505	2.5250	-0.314149	1.557527	-0.534827	-0.278106	1.538704	-0.731687	-0.271843	1.546207	-0.350083	-0.164831	1.503235	-0.548938	-0.161929	1.043883	-0.425198	-0.174133	1.054150	-0.670699	-0.225871	1.105033	-0.375149	-0.253312	1.119377	-0.704740	-0.339870	1.098585	-0.499350	-0.343194	1.099742	-0.562430	-0.340674	1.100556	-0.532721	-0.227443	0.820304	-0.345081	-0.223744	0.759001	-0.346370	-0.153064	0.771916	-0.357227	-0.163971	0.830291	-0.355715	-0.252692	0.548901	-0.369079	-0.232462	0.531482	-0.499953	-0.338332	0.316408	-0.366473	-0.353253	0.279223	-0.379546	-0.294709	0.262250	-0.376700	-0.283533	0.299692	-0.367069	-0.363081	0.153155	-0.388939	-0.317956	0.154902	-0.468931	-0.410469	0.148105	-0.438624	-0.268923	0.050603	-0.373605	-0.220232	0.065412	-0.441702	-0.192877	0.054376	-0.435144	-0.281267	0.810325	-0.737838	-0.267520	0.752317	-0.736190	-0.199778	0.770173	-0.756762	-0.222081	0.827869	-0.756205	-0.247257	0.543654	-0.739650	-0.222805	0.519964	-0.620719	-0.346709	0.315434	-0.736282	-0.000000	0.000000	-0.000000	-0.299659	0.262416	-0.743099	-0.296318	0.305752	-0.749910	-0.350673	0.159296	-0.737842	-0.000000	0.000000	-0.000000	-0.408046	0.154429	-0.680665	-0.265941	0.061593	-0.750808	-0.214818	0.079329	-0.693710	-0.189018	0.064400	-0.700057	
506	2.5300	-0.313848	1.555016	-0.534736	-0.277719	1.535779	-0.731759	-0.271409	1.543430	-0.349817	-0.164673	1.500489	-0.548826	-0.162287	1.041379	-0.424935	-0.174348	1.051513	-0.670567	-0.226619	1.102347	-0.375114	-0.253484	1.116543	-0.704603	-0.340332	1.095557	-0.499365	-0.343566	1.096639	-0.562415	-0.341127	1.097464	-0.532709	-0.227325	0.817682	-0.345053	-0.223438	0.756401	-0.346260	-0.152773	0.769517	-0.356929	-0.163859	0.827879	-0.355523	-0.251774	0.546315	-0.368831	-0.232059	0.529046	-0.499804	-0.338209	0.314269	-0.366156	-0.353386	0.277234	-0.379280	-0.294923	0.259910	-0.376853	-0.283495	0.297258	-0.367188	-0.363981	0.151241	-0.389089	-0.319644	0.152806	-0.469166	-0.411738	0.146900	-0.438288	-0.270827	0.047554	-0.374783	-0.222363	0.062083	-0.443113	-0.195082	0.050541	-0.436883	-0.281444	0.807740	-0.737628	-0.267692	0.749731	-0.735985	-0.199989	0.767552	-0.756680	-0.222299	0.825287	-0.756129	-0.247157	0.541156	-0.739732	-0.222884	0.517517	-0.620760	-0.347017	0.313124	-0.736208	-0.000000	0.000000	-0.000000	-0.300148	0.260017	-0.743063	-0.296569	0.303427	-0.750010	-0.351417	0.157085	-0.737792	-0.000000	0.000000	-0.000000	-0.408627	0.152501	-0.680422	-0.267122	0.059098	-0.751036	-0.215745	0.076645	-0.694129	-0.190042	0.061640	-0.700605	
507	2.5350	-0.313567	1.552247	-0.534662	-0.277316	1.532627	-0.731816	-0.271030	1.540421	-0.349590	-0.164525	1.497486	-0.548714	-0.162636	1.038640	-0.424629	-0.174545	1.048626	-0.670415	-0.227371	1.099457	-0.375064	-0.253572	1.113524	-0.704467	-0.340756	1.092355	-0.499411	-0.343912	1.093398	-0.562436	-0.341543	1.094217	-0.532711	-0.227265	0.814789	-0.345013	-0.223161	0.753530	-0.346128	-0.152513	0.766858	-0.356577	-0.163794	0.825214	-0.355293	-0.250839	0.543494	-0.368547	-0.231507	0.526339	-0.499614	-0.338190	0.311907	-0.365851	-0.353612	0.275028	-0.379041	-0.295246	0.257351	-0.376997	-0.283560	0.294594	-0.367294	-0.365042	0.149147	-0.389217	-0.321410	0.150528	-0.469394	-0.413137	0.145395	-0.437947	-0.272886	0.044390	-0.375747	-0.224528	0.058660	-0.444537	-0.197280	0.046667	-0.438543	-0.281662	0.804883	-0.737397	-0.267901	0.746879	-0.735776	-0.200251	0.764667	-0.756625	-0.222569	0.822443	-0.756074	-0.247093	0.538438	-0.739840	-0.222808	0.514816	-0.620861	-0.347445	0.310800	-0.736099	-0.000000	0.000000	-0.000000	-0.300769	0.257419	-0.743037	-0.296851	0.300963	-0.750189	-0.352300	0.154703	-0.737732	-0.000000	0.000000	-0.000000	-0.409295	0.150421	-0.680102	-0.268510	0.056383	-0.751351	-0.216829	0.073691	-0.694663	-0.191247	0.058618	-0.701293	
508	2.5400	-0.313308	1.549218	-0.534603	-0.276907	1.529238	-0.731861	-0.270701	1.537177	-0.349394	-0.164383	1.494230	-0.548606	-0.162977	1.035662	-0.424289	-0.174730	1.045491	-0.670243	-0.228111	1.096361	-0.374999	-0.253582	1.110323	-0.704337	-0.341143	1.088998	-0.499485	-0.344241	1.090027	-0.562496	-0.341910	1.090823	-0.532728	-0.227251	0.811639	-0.344960	-0.222917	0.750394	-0.345973	-0.152288	0.763964	-0.356197	-0.163776	0.822279	-0.355038	-0.249883	0.540440	-0.368235	-0.230790	0.523351	-0.499381	-0.338320	0.309329	-0.365566	-0.353960	0.272623	-0.378838	-0.295722	0.254584	-0.377144	-0.283782	0.291714	-0.367393	-0.366319	0.146879	-0.389334	-0.323256	0.148090	-0.469656	-0.414708	0.143486	-0.437600	-0.274864	0.041424	-0.376055	-0.226325	0.055802	-0.445951	-0.198915	0.043456	-0.440274	-0.281908	0.801756	-0.737156	-0.268129	0.743763	-0.735569	-0.200548	0.761537	-0.756614	-0.222877	0.819338	-0.756041	-0.247042	0.535507	-0.739975	-0.222567	0.511855	-0.621026	-0.348201	0.307850	-0.735354	-0.000000	0.000000	-0.000000	-0.301470	0.254649	-0.743042	-0.297270	0.298297	-0.750339	-0.353316	0.152159	-0.737652	-0.000000	0.000000	-0.000000	-0.410058	0.148173	-0.679711	-0.270079	0.053464	-0.751701	-0.218071	0.070464	-0.695242	-0.192624	0.055332	-0.702054	
